<svg width="231" height="170" viewBox="0 0 231 170" fill="none" xmlns="http://www.w3.org/2000/svg">
<path d="M77.6256 165.16C70.6047 165.16 63.5943 165.051 56.5944 164.832C46.5924 164.52 36.2498 164.198 26.6368 159.567C19.9121 156.328 13.9563 151.131 9.4135 144.538C6.4165 140.155 4.18455 135.295 2.81257 130.165C2.14141 127.697 1.65436 125.183 1.35545 122.643C0.53688 115.781 1.11689 108.824 3.0605 102.193C4.00437 99.0194 5.29044 95.9581 6.89604 93.0629C13.9064 80.4545 26.6929 71.9909 41.9769 69.8422C42.1033 69.828 42.2307 69.8256 42.3576 69.8352C42.4263 69.8384 42.4948 69.8418 42.5647 69.8393L42.6546 69.8144C42.8864 69.7446 43.123 69.6918 43.3625 69.6566C66.9346 66.6089 91.8536 72.7756 115.424 87.4898C133.648 98.8683 157.801 104.995 189.262 106.221L189.709 106.242C198.467 106.679 206.938 109.815 214.209 115.311C221.313 120.639 226.724 127.908 229.79 136.242C230.161 137.251 230.501 138.3 230.801 139.361C231.368 141.369 230.71 143.397 228.995 144.941V144.943L228.916 145.013C228.728 145.176 228.529 145.332 228.326 145.477L228.088 145.648C226.077 147.087 224.489 148.223 222.589 149.105C221.306 149.695 219.96 150.136 218.577 150.421C210.91 152.044 203.125 153.549 195.436 154.895C180.505 157.509 165.181 159.666 149.888 161.305C125.886 163.874 101.765 165.161 77.6256 165.16ZM42.1788 70.2817C42.1319 70.2814 42.085 70.2841 42.0385 70.29C26.8973 72.4185 14.2319 80.7991 7.29105 93.2827C5.70129 96.1492 4.42795 99.1802 3.49346 102.322C1.56747 108.894 0.992865 115.789 1.80431 122.59C2.10059 125.107 2.58335 127.6 3.24862 130.046C4.60717 135.127 6.81749 139.94 9.78555 144.282C14.2839 150.81 20.1788 155.955 26.833 159.16C36.3597 163.749 46.6536 164.07 56.6085 164.38C87.7297 165.347 118.881 164.169 149.84 160.856C165.122 159.218 180.437 157.062 195.358 154.449C203.041 153.105 210.822 151.601 218.483 149.979C219.833 149.701 221.146 149.271 222.398 148.695C224.261 147.831 225.833 146.705 227.825 145.28L228.063 145.11C228.238 144.985 228.409 144.851 228.573 144.712L228.62 144.669C230.256 143.237 230.893 141.347 230.366 139.484C230.069 138.434 229.733 137.396 229.366 136.398C223.202 119.507 207.256 107.569 189.687 106.693L189.243 106.673C174.872 106.113 162.296 104.561 150.799 101.929C137.074 98.7877 125.091 94.0584 115.184 87.8731C91.704 73.2153 66.8892 67.0715 43.4201 70.1049C43.2019 70.1375 42.9863 70.186 42.7752 70.2501L42.6131 70.2895C42.5198 70.2944 42.4282 70.2907 42.3368 70.2866C42.2826 70.2842 42.2301 70.2817 42.1788 70.2817Z" fill="#F0F0F0"/>
<path d="M228.769 144.839V144.842C228.586 145 228.394 145.151 228.195 145.294C224.877 147.669 222.611 149.334 218.53 150.2C210.847 151.827 203.136 153.317 195.397 154.672C180.3 157.316 165.122 159.452 149.864 161.081C118.895 164.401 87.7331 165.579 56.6015 164.606C46.234 164.283 36.2348 163.939 26.735 159.363C19.7909 156.019 13.9563 150.733 9.59959 144.41C5.18186 137.999 2.49508 130.413 1.57989 122.616C3.731 121.677 6.01636 121.082 8.35223 120.853C16.4601 120.081 24.4391 123.05 31.8125 126.505C39.1882 129.958 46.4306 133.994 54.4164 135.588C66.1849 137.936 78.3331 134.742 89.6158 130.654C100.899 126.566 112.005 121.518 123.905 119.974C139.865 117.902 155.88 122.288 171.377 126.632C187.884 131.258 204.392 135.884 220.9 140.512C223.259 141.172 225.707 141.879 227.546 143.497C228.002 143.898 228.412 144.348 228.769 144.839Z" fill="#E6E6E6"/>
<path d="M228.769 144.839V144.842C228.586 145 228.394 145.151 228.195 145.294C226.116 146.781 224.45 147.992 222.493 148.9C215.766 149.562 209.03 150.136 202.285 150.62C184.924 151.865 167.528 152.527 150.099 152.606C114.742 152.787 77.5671 153.895 46.6091 136.72C36.3081 131.005 21.3862 142.724 11.1814 136.458C8.23986 134.645 5.50651 132.515 3.03062 130.105C2.36194 127.648 1.87703 125.145 1.57989 122.616C0.7607 115.785 1.33805 108.859 3.27692 102.257C4.21496 99.0994 5.49475 96.0532 7.09357 93.1729C11.8344 94.8745 16.381 97.3242 20.7083 99.9185C28.6444 104.671 36.3613 110.067 45.199 112.788C58.2262 116.799 72.32 114.594 85.5393 111.276C98.7586 107.959 111.89 103.539 125.514 103.166C143.786 102.666 161.373 109.471 178.382 116.167C195.445 122.885 212.51 129.603 229.578 136.32C229.953 137.339 230.288 138.373 230.583 139.423C231.187 141.556 230.312 143.488 228.769 144.839Z" fill="#F2F2F2"/>
<path d="M62.4016 58.0837C59.8318 56.3512 60.0832 52.5604 62.8008 51.0704C62.8561 51.0401 62.9104 51.0087 62.9635 50.9764C63.0997 50.324 63.2359 49.6717 63.3721 49.0194C64.1738 49.8521 65.7503 49.695 66.3719 48.7203C64.2046 44.0973 61.3548 39.8263 57.9179 36.0505C57.1687 35.2234 56.7484 34.1505 56.7363 33.0345C56.7242 31.9186 57.1212 30.8369 57.8523 29.9937C57.8654 29.9784 57.8784 29.963 57.8913 29.9474C59.8321 29.2919 61.6699 28.3638 63.3495 27.1911C57.5895 17.9362 46.6061 10.5838 43.9954 0C36.1414 8.43474 35.2597 11.4054 27.4057 19.8401C27.4057 19.8401 19.9689 26.5512 18.3637 30.1578C18.7581 30.5721 22.2891 31.5664 22.4249 32.381C25.1177 32.5969 29.783 29.6451 29.783 29.6451C29.783 29.6451 19.6003 40.5016 16.5087 47.1886C16.2304 47.7908 15.9659 48.4784 16.1992 49.0994C16.3854 49.5953 17.0534 49.8812 17.4836 49.6842C16.9696 50.1799 16.557 50.7708 16.2686 51.424C17.1657 51.9969 18.2298 52.2505 19.2889 52.1438C20.348 52.0372 21.3401 51.5764 22.105 50.8361C21.6744 51.6407 21.2438 52.4452 20.8132 53.2498L20.8139 53.2517C21.3957 53.4418 21.9178 53.7804 22.3286 54.234C22.7394 54.6877 23.0248 55.2407 23.1565 55.8384C23.2882 56.4361 23.2617 57.0579 23.0795 57.6422C22.8974 58.2265 22.566 58.7532 22.118 59.1703C19.4459 61.6556 17.0042 64.268 16.1096 65.9884C15.2679 67.6069 23.9099 69.5578 25.8537 69.4778C27.7975 69.3978 29.6144 68.5437 31.37 67.7054C31.2844 68.5059 31.4375 69.3139 31.8101 70.0276C32.7715 70.261 33.7699 70.2998 34.7466 70.1419C35.7232 69.984 36.6585 69.6326 37.4975 69.1081C37.42 70.7092 39.4395 71.5932 40.8412 71.1398C40.1414 82.2108 40.6533 97.7569 41.3256 113.896H42.9935V71.7781C43.4374 72.003 43.9122 72.1609 44.4023 72.2464C47.8149 72.8522 51.9331 73.2206 54.1537 70.5593C56.7095 73.1365 61.3931 73.0876 63.9341 70.5194C63.6841 70.9624 64.0668 71.7081 64.633 71.8256C65.3003 71.964 65.9495 71.5675 66.516 71.1887C69.0807 69.474 71.6454 67.7593 74.2101 66.0446C71.0452 63.9109 66.5493 60.8799 62.4016 58.0837Z" fill="#E6E6E6"/>
<path d="M139.39 52.9315C143.838 52.9315 147.443 49.3256 147.443 44.8775C147.443 40.4294 143.838 36.8235 139.39 36.8235C134.942 36.8235 131.336 40.4294 131.336 44.8775C131.336 49.3256 134.942 52.9315 139.39 52.9315Z" fill="#F2F2F2"/>
<path d="M157.416 41.0642C156.95 39.5039 155.634 38.4852 154.044 38.2618C154.026 38.2593 154.01 38.2626 153.992 38.2614C153.97 38.2545 153.947 38.2493 153.923 38.2456C151.671 37.9711 149.392 38.4672 147.457 39.6532C145.593 40.817 143.421 41.3434 141.225 41.4289C141.212 41.4294 141.199 41.43 141.186 41.4306C140.37 41.485 139.591 41.7896 138.954 42.303C138.317 42.8164 137.854 43.5136 137.627 44.2997C137.603 44.3959 137.61 44.4973 137.647 44.5891C137.685 44.681 137.751 44.7586 137.835 44.8106C138.078 45.0168 138.366 45.1631 138.676 45.2378C139.345 45.3795 140.017 45.5093 140.69 45.6272C142.005 45.8572 143.326 46.0432 144.654 46.1851C147.35 46.4741 150.063 46.5766 152.773 46.4921C153.676 46.4639 154.546 46.434 155.373 46.0356C155.975 45.7384 156.489 45.2898 156.865 44.7338C157.219 44.1995 157.452 43.594 157.547 42.9601C157.642 42.3261 157.597 41.679 157.416 41.0642Z" fill="#E6E6E6"/>
<path d="M140.677 51.8029C140.211 50.2426 138.895 49.224 137.305 49.0005C137.287 48.998 137.271 49.0013 137.253 49.0001C137.231 48.9933 137.208 48.988 137.185 48.9843C134.932 48.7098 132.653 49.2059 130.718 50.392C128.854 51.5558 126.682 52.0822 124.487 52.1676C124.474 52.1681 124.461 52.1687 124.447 52.1694C123.631 52.2238 122.852 52.5284 122.215 53.0417C121.578 53.5551 121.115 54.2523 120.888 55.0384C120.864 55.1346 120.871 55.236 120.909 55.3279C120.946 55.4197 121.012 55.4973 121.096 55.5494C121.339 55.7555 121.628 55.9018 121.938 55.9765C122.606 56.1182 123.278 56.248 123.951 56.3659C125.266 56.5959 126.587 56.7819 127.915 56.9239C130.611 57.2128 133.324 57.3154 136.034 57.2308C136.937 57.2027 137.808 57.1727 138.635 56.7743C139.236 56.4771 139.75 56.0285 140.126 55.4725C140.48 54.9382 140.713 54.3327 140.808 53.6988C140.903 53.0648 140.858 52.4177 140.677 51.8029Z" fill="#E6E6E6"/>
<path d="M208.831 85.4277C206.261 83.6951 206.512 79.9043 209.23 78.4144C209.285 78.384 209.339 78.3527 209.393 78.3203C209.529 77.668 209.665 77.0157 209.801 76.3633C210.603 77.1961 212.179 77.0389 212.801 76.0643C210.634 71.4412 207.784 67.1702 204.347 63.3944C203.598 62.5673 203.177 61.4944 203.165 60.3785C203.153 59.2625 203.55 58.1808 204.281 57.3377C204.294 57.3223 204.308 57.3069 204.32 57.2914C206.261 56.6359 208.099 55.7078 209.779 54.535C204.019 45.2801 193.035 37.9278 190.424 27.344C182.57 35.7787 181.689 38.7493 173.835 47.1841C173.835 47.1841 166.398 53.8951 164.793 57.5018C165.187 57.9161 168.718 58.9103 168.854 59.7249C171.547 59.9408 176.212 56.9891 176.212 56.9891C176.212 56.9891 166.029 67.8455 162.938 74.5326C162.659 75.1347 162.395 75.8223 162.628 76.4434C162.814 76.9392 163.482 77.2251 163.913 77.0281C163.399 77.5238 162.986 78.1147 162.698 78.7679C163.595 79.3408 164.659 79.5944 165.718 79.4878C166.777 79.3811 167.769 78.9204 168.534 78.1801C168.103 78.9846 167.673 79.7892 167.242 80.5937L167.243 80.5956C167.825 80.7857 168.347 81.1243 168.758 81.578C169.168 82.0317 169.454 82.5847 169.586 83.1824C169.717 83.7801 169.691 84.4018 169.509 84.9862C169.326 85.5705 168.995 86.0972 168.547 86.5142C165.875 88.9996 163.433 91.612 162.539 93.3324C161.697 94.9508 170.339 96.9018 172.283 96.8218C174.227 96.7418 176.043 95.8876 177.799 95.0494C177.714 95.8499 177.867 96.6579 178.239 97.3716C179.201 97.6049 180.199 97.6438 181.176 97.4859C182.152 97.328 183.088 96.9765 183.927 96.4521C183.849 98.0531 185.869 98.9372 187.27 98.4838C186.57 109.555 187.082 125.101 187.755 141.239H189.423V99.1221C189.866 99.347 190.341 99.5048 190.831 99.5904C194.244 100.196 198.362 100.565 200.583 97.9032C203.139 100.48 207.822 100.432 210.363 97.8633C210.113 98.3064 210.496 99.052 211.062 99.1695C211.729 99.308 212.379 98.9115 212.945 98.5327C215.51 96.818 218.074 95.1032 220.639 93.3885C217.474 91.2549 212.978 88.2239 208.831 85.4277Z" fill="#E6E6E6"/>
<path d="M15.2294 128.362C15.3967 128.37 15.5622 128.326 15.7037 128.237C15.8451 128.147 15.9556 128.016 16.0202 127.862C16.0848 127.707 16.1003 127.537 16.0647 127.373C16.0291 127.209 15.9441 127.061 15.8212 126.947C15.8006 126.865 15.7858 126.807 15.7652 126.725C15.7726 126.707 15.78 126.689 15.7875 126.671C15.9559 126.273 16.2382 125.934 16.5989 125.696C16.9596 125.458 17.3826 125.332 17.8147 125.333C18.2469 125.335 18.6689 125.464 19.0278 125.705C19.3867 125.946 19.6665 126.287 19.832 126.686C20.4935 128.28 21.3357 129.876 21.5431 131.56C21.6344 132.305 21.5959 133.06 21.4292 133.791C22.9829 130.402 23.7897 126.718 23.7949 122.99C23.7952 122.054 23.7432 121.119 23.6392 120.189C23.5532 119.427 23.4339 118.67 23.2813 117.919C22.4486 113.842 20.6606 110.02 18.0643 106.768C16.8077 106.083 15.7915 105.028 15.1526 103.747C14.9211 103.287 14.7575 102.795 14.6669 102.288C14.8086 102.306 14.9527 102.318 15.0945 102.327C15.1386 102.329 15.1851 102.332 15.2292 102.334L15.2459 102.335C15.4017 102.342 15.5562 102.304 15.6908 102.225C15.8254 102.146 15.9343 102.03 16.0045 101.891C16.0747 101.752 16.1032 101.595 16.0864 101.44C16.0697 101.285 16.0086 101.138 15.9103 101.017C15.8491 100.942 15.7878 100.866 15.7266 100.791C15.6336 100.675 15.5383 100.561 15.4454 100.445C15.4346 100.434 15.4245 100.422 15.4152 100.41C15.3082 100.277 15.2014 100.147 15.0945 100.015C15.2896 99.7119 15.552 99.4582 15.8613 99.2735C16.9326 98.646 18.4106 99.0806 19.1844 100.05C19.9606 101.019 20.107 102.378 19.8374 103.589C19.5723 104.619 19.1338 105.597 18.5407 106.48C18.5988 106.554 18.6592 106.627 18.7173 106.701C19.7793 108.067 20.7049 109.533 21.4809 111.079C21.2922 109.347 21.5174 107.595 22.138 105.967C22.767 104.449 23.9459 103.171 24.9841 101.859C26.2311 100.284 28.7883 100.971 29.008 102.969C29.0101 102.988 29.0122 103.007 29.0142 103.027C28.86 103.114 28.7091 103.206 28.5614 103.304C28.3758 103.428 28.2321 103.605 28.1489 103.812C28.0658 104.019 28.0471 104.246 28.0954 104.464C28.1436 104.682 28.2566 104.88 28.4194 105.033C28.5822 105.185 28.7874 105.285 29.0079 105.319L29.0305 105.323C28.9755 105.879 28.8784 106.429 28.74 106.97C28.3389 108.481 27.63 109.892 26.6579 111.116C25.6858 112.34 24.4714 113.349 23.0908 114.082C23.0001 114.128 22.9118 114.175 22.8212 114.219C23.2371 115.391 23.5694 116.591 23.8158 117.809C24.0362 118.884 24.1899 119.972 24.2759 121.065C24.3813 122.443 24.3751 123.827 24.2573 125.204L24.2643 125.155C24.5618 123.624 25.3785 122.243 26.5765 121.244C28.3559 119.782 30.8698 119.244 32.7895 118.069C32.9935 117.938 33.2307 117.868 33.4731 117.868C33.7156 117.867 33.9531 117.936 34.1578 118.066C34.3624 118.196 34.5256 118.382 34.6281 118.601C34.7306 118.821 34.7682 119.066 34.7364 119.306C34.7338 119.323 34.7312 119.34 34.7285 119.357C34.4423 119.474 34.1637 119.608 33.8943 119.759C33.74 119.846 33.5891 119.939 33.4414 120.036C33.2559 120.16 33.1121 120.337 33.0289 120.544C32.9458 120.751 32.9271 120.979 32.9754 121.197C33.0237 121.415 33.1366 121.613 33.2994 121.765C33.4623 121.918 33.6674 122.018 33.8879 122.052L33.9105 122.055C33.9268 122.058 33.9407 122.06 33.957 122.062C33.468 123.23 32.7818 124.304 31.9283 125.239C30.8739 126.371 29.5996 127.275 28.1834 127.896C26.7673 128.517 25.2391 128.843 23.6926 128.853H23.6903C23.2705 130.677 22.6623 132.453 21.8754 134.152H15.3919C15.3686 134.079 15.3477 134.005 15.3268 133.933C15.9269 133.971 16.5294 133.935 17.1208 133.826C16.6398 133.236 16.1588 132.641 15.6777 132.051C15.667 132.04 15.6569 132.028 15.6475 132.016C15.4035 131.714 15.1572 131.414 14.9132 131.112C14.9002 130.186 15.0065 129.261 15.2294 128.362Z" fill="#E6E6E6"/>
<path d="M208.434 134.69C208.602 134.698 208.767 134.654 208.909 134.564C209.05 134.475 209.161 134.344 209.225 134.189C209.29 134.035 209.305 133.864 209.27 133.701C209.234 133.537 209.149 133.388 209.026 133.275C209.006 133.193 208.991 133.134 208.97 133.052C208.978 133.034 208.985 133.017 208.992 132.999C209.161 132.601 209.443 132.262 209.804 132.024C210.165 131.786 210.588 131.659 211.02 131.661C211.452 131.663 211.874 131.792 212.233 132.033C212.592 132.273 212.871 132.615 213.037 133.014C213.699 134.607 214.541 136.203 214.748 137.888C214.839 138.632 214.801 139.387 214.634 140.119C216.188 136.729 216.995 133.046 217 129.317C217 128.381 216.948 127.447 216.844 126.517C216.758 125.754 216.639 124.998 216.486 124.246C215.654 120.169 213.866 116.348 211.269 113.096C210.013 112.41 208.997 111.356 208.358 110.075C208.126 109.614 207.963 109.123 207.872 108.615C208.014 108.634 208.158 108.645 208.299 108.655C208.344 108.657 208.39 108.659 208.434 108.662L208.451 108.662C208.607 108.669 208.761 108.631 208.896 108.552C209.03 108.474 209.139 108.358 209.21 108.218C209.28 108.079 209.308 107.923 209.291 107.768C209.275 107.612 209.214 107.466 209.115 107.344C209.054 107.269 208.993 107.194 208.932 107.119C208.839 107.002 208.743 106.888 208.65 106.772C208.64 106.761 208.63 106.75 208.62 106.737C208.513 106.605 208.406 106.475 208.3 106.342C208.495 106.039 208.757 105.786 209.066 105.601C210.138 104.974 211.616 105.408 212.389 106.377C213.166 107.346 213.312 108.706 213.042 109.917C212.777 110.947 212.339 111.925 211.746 112.808C211.804 112.882 211.864 112.954 211.922 113.028C212.984 114.394 213.91 115.861 214.686 117.407C214.497 115.675 214.722 113.922 215.343 112.294C215.972 110.777 217.151 109.499 218.189 108.187C219.436 106.611 221.993 107.299 222.213 109.296C222.215 109.316 222.217 109.335 222.219 109.354C222.065 109.441 221.914 109.534 221.766 109.631C221.581 109.755 221.437 109.932 221.354 110.139C221.271 110.346 221.252 110.574 221.3 110.792C221.349 111.01 221.462 111.208 221.624 111.36C221.787 111.513 221.992 111.613 222.213 111.647L222.236 111.65C222.181 112.206 222.083 112.757 221.945 113.298C221.544 114.808 220.835 116.22 219.863 117.444C218.891 118.667 217.676 119.677 216.296 120.409C216.205 120.456 216.117 120.502 216.026 120.546C216.806 122.756 217.295 125.057 217.481 127.393C217.586 128.771 217.58 130.155 217.462 131.532L217.469 131.483C217.767 129.952 218.584 128.57 219.782 127.572C221.561 126.11 224.075 125.572 225.995 124.397C226.199 124.266 226.436 124.196 226.678 124.195C226.921 124.195 227.158 124.263 227.363 124.393C227.567 124.523 227.731 124.709 227.833 124.929C227.936 125.149 227.973 125.393 227.941 125.633C227.939 125.651 227.936 125.668 227.934 125.685C227.647 125.801 227.369 125.936 227.099 126.087C226.945 126.174 226.794 126.266 226.646 126.364C226.461 126.488 226.317 126.665 226.234 126.872C226.151 127.079 226.132 127.306 226.18 127.524C226.229 127.742 226.342 127.94 226.505 128.093C226.667 128.245 226.872 128.345 227.093 128.379L227.116 128.383C227.132 128.385 227.146 128.387 227.162 128.39C226.673 129.557 225.987 130.632 225.133 131.567C224.079 132.698 222.805 133.602 221.388 134.224C219.972 134.845 218.444 135.171 216.898 135.18H216.895C216.476 137.005 215.867 138.78 215.08 140.479H208.597C208.574 140.407 208.553 140.333 208.532 140.261C209.132 140.298 209.734 140.262 210.326 140.154C209.845 139.563 209.364 138.968 208.883 138.378C208.872 138.367 208.862 138.355 208.853 138.343C208.609 138.041 208.362 137.741 208.118 137.439C208.105 136.513 208.212 135.589 208.434 134.69Z" fill="#E6E6E6"/>
<path d="M131.378 115.933C131.546 115.941 131.711 115.897 131.853 115.808C131.994 115.718 132.105 115.587 132.169 115.433C132.234 115.278 132.249 115.108 132.214 114.944C132.178 114.78 132.093 114.632 131.97 114.518C131.95 114.436 131.935 114.377 131.914 114.296C131.922 114.278 131.929 114.26 131.936 114.242C132.105 113.844 132.387 113.505 132.748 113.267C133.109 113.029 133.532 112.903 133.964 112.904C134.396 112.906 134.818 113.035 135.177 113.276C135.536 113.517 135.815 113.858 135.981 114.257C136.642 115.851 137.485 117.447 137.692 119.131C137.783 119.876 137.745 120.631 137.578 121.362C139.132 117.973 139.939 114.289 139.944 110.56C139.944 109.625 139.892 108.69 139.788 107.76C139.702 106.998 139.583 106.241 139.43 105.49C138.598 101.412 136.81 97.5911 134.213 94.3392C132.957 93.6535 131.94 92.5991 131.302 91.3181C131.07 90.8576 130.907 90.366 130.816 89.8586C130.958 89.8772 131.102 89.8888 131.243 89.8981C131.288 89.9004 131.334 89.9028 131.378 89.9051L131.395 89.9058C131.551 89.9128 131.705 89.8746 131.84 89.7959C131.974 89.7171 132.083 89.6011 132.154 89.4618C132.224 89.3226 132.252 89.166 132.235 89.0109C132.219 88.8559 132.158 88.7089 132.059 88.5878C131.998 88.5125 131.937 88.4372 131.876 88.362C131.783 88.2458 131.687 88.1319 131.594 88.0157C131.584 88.0047 131.574 87.993 131.564 87.9808C131.457 87.8484 131.35 87.7182 131.243 87.5858C131.439 87.2829 131.701 87.0292 132.01 86.8444C133.082 86.217 134.56 86.6515 135.333 87.6206C136.11 88.5897 136.256 89.9492 135.986 91.16C135.721 92.1903 135.283 93.1679 134.69 94.051C134.748 94.1254 134.808 94.1974 134.866 94.2718C135.928 95.6375 136.854 97.104 137.63 98.6502C137.441 96.918 137.666 95.1657 138.287 93.5374C138.916 92.02 140.095 90.742 141.133 89.4302C142.38 87.8545 144.937 88.5422 145.157 90.5396C145.159 90.559 145.161 90.5783 145.163 90.5976C145.009 90.6846 144.858 90.777 144.71 90.8746C144.525 90.9986 144.381 91.1757 144.298 91.3828C144.215 91.5899 144.196 91.8173 144.244 92.0351C144.293 92.253 144.406 92.4512 144.568 92.6038C144.731 92.7564 144.936 92.8562 145.157 92.8902L145.179 92.8937C145.125 93.4495 145.027 94.0003 144.889 94.5414C144.488 96.0519 143.779 97.4633 142.807 98.687C141.835 99.9107 140.62 100.92 139.24 101.653C139.149 101.699 139.061 101.746 138.97 101.79C139.75 103.999 140.239 106.301 140.425 108.636C140.53 110.014 140.524 111.398 140.406 112.775L140.413 112.726C140.711 111.195 141.527 109.814 142.725 108.815C144.505 107.353 147.019 106.815 148.938 105.64C149.142 105.509 149.38 105.439 149.622 105.439C149.865 105.438 150.102 105.507 150.307 105.637C150.511 105.767 150.675 105.953 150.777 106.172C150.88 106.392 150.917 106.636 150.885 106.877C150.883 106.894 150.88 106.911 150.877 106.928C150.591 107.045 150.313 107.179 150.043 107.33C149.889 107.417 149.738 107.509 149.59 107.607C149.405 107.731 149.261 107.908 149.178 108.115C149.095 108.322 149.076 108.55 149.124 108.768C149.173 108.986 149.286 109.184 149.448 109.336C149.611 109.489 149.816 109.589 150.037 109.623L150.059 109.626C150.076 109.629 150.09 109.631 150.106 109.633C149.617 110.801 148.931 111.875 148.077 112.81C147.023 113.941 145.749 114.846 144.332 115.467C142.916 116.088 141.388 116.414 139.842 116.424H139.839C139.419 118.248 138.811 120.024 138.024 121.722H131.541C131.518 121.65 131.497 121.576 131.476 121.504C132.076 121.542 132.678 121.506 133.27 121.397C132.789 120.807 132.308 120.212 131.827 119.622C131.816 119.611 131.806 119.599 131.797 119.587C131.553 119.285 131.306 118.985 131.062 118.683C131.049 117.757 131.155 116.832 131.378 115.933Z" fill="#E6E6E6"/>
<path d="M90.1821 165.204L92.8951 164.397L91.1004 153.306L87.096 154.497L90.1821 165.204Z" fill="#FFB6B6"/>
<path d="M73.5427 160.826C73.7079 160.97 73.8734 161.112 74.0408 161.254C74.3736 161.539 74.7108 161.82 75.0485 162.098C75.2183 162.237 75.39 162.376 75.5601 162.513L75.5592 162.518L75.57 162.522L75.5734 162.525L75.8476 162.64L76.6962 161.155L81.4203 152.886L77.5733 151.264L77.3261 151.854L77.3243 151.853L77.2021 152.146L74.436 158.711L74.4211 158.745L74.1391 159.411L73.8958 159.987L73.6247 160.632L73.5427 160.826Z" fill="#FFB6B6"/>
<path d="M53.4428 133.166C53.632 133.614 53.8271 134.06 54.0246 134.504C54.3915 135.329 54.773 136.146 55.1693 136.953C55.169 136.955 55.1709 136.955 55.1724 136.957C55.4269 137.281 55.7183 137.573 56.0407 137.83C56.0538 137.843 56.0693 137.853 56.0826 137.865C56.3205 138.05 56.5804 138.205 56.8563 138.327C56.956 138.37 57.0575 138.412 57.1571 138.455C57.5172 138.603 57.8757 138.737 58.2338 138.863C58.8711 139.083 59.5075 139.27 60.1428 139.423C60.1938 139.437 60.2451 139.449 60.2964 139.461C62.9165 140.075 65.5467 140.171 68.3216 140.084C69.6917 140.043 71.0974 139.956 72.5531 139.866C73.029 139.835 73.5064 139.806 73.9894 139.778C74.0258 139.776 74.0643 139.773 74.1025 139.771C74.7926 139.731 75.4935 139.693 76.2108 139.661C77.1137 139.62 78.0435 139.588 79.007 139.572L78.7311 140.882C78.5146 141.89 78.1448 142.858 77.6345 143.753C77.0489 144.86 76.5855 145.737 76.9488 147.771L77.1232 148.756C76.8827 149.193 76.7468 149.68 76.7261 150.179C76.7055 150.677 76.8007 151.174 77.0042 151.63L77.0535 151.738L73.2883 158.113L73.0443 158.527L74.4211 158.745L78.9833 159.469L84.4395 151.818L84.7005 151.453L84.7037 151.432L86.8042 135.4C86.821 135.259 86.8324 135.114 86.8362 134.97C86.8621 134.318 86.7579 133.668 86.5297 133.056C86.3014 132.445 85.9537 131.885 85.5068 131.41C85.0791 130.951 84.5644 130.582 83.9927 130.324C83.421 130.065 82.8037 129.923 82.1767 129.906L75.694 129.722L75.6524 129.722L69.5139 129.547L69.361 127.719L69.286 127.676L58.6502 121.749L58.6292 121.738L58.0865 121.436L58.0003 121.536C57.9747 121.566 57.949 121.596 57.9252 121.626C57.1941 122.557 56.5599 123.56 56.0325 124.62C55.1543 126.348 54.3751 128.125 53.6989 129.942C53.6693 130.021 53.6428 130.092 53.6192 130.157L53.6105 130.177C53.5999 130.207 53.593 130.227 53.5902 130.232C53.2551 131.041 53.2333 132.09 53.4428 133.166Z" fill="#2F2E41"/>
<path d="M54.0049 127.224C54.0514 127.11 54.1057 126.995 54.1612 126.884C54.5953 126.047 55.0753 125.234 55.5989 124.449C56.1887 123.555 56.8764 122.606 57.6777 121.588C58.0653 121.095 58.4792 120.584 58.9194 120.055C59.1399 119.789 59.3681 119.52 59.6039 119.246C59.6135 119.233 59.6237 119.221 59.6345 119.209L59.7023 119.128L68.1848 121.661L68.1807 122.822L68.7959 124.468L68.7542 124.517C68.7564 124.515 68.7561 124.517 68.7542 124.517V124.291L68.9802 124.517L71.1671 127.219L71.1823 127.22L83.8111 127.577C84.4382 127.594 85.0555 127.736 85.6272 127.994C86.199 128.253 86.7136 128.622 87.1412 129.081C87.588 129.556 87.9357 130.116 88.1639 130.728C88.3921 131.339 88.4964 131.989 88.4706 132.642C88.4668 132.774 88.4568 132.909 88.4415 133.041L90.0038 139.364C90.9389 143.146 91.2981 147.047 91.0691 150.935L91.9744 157.089L86.7239 156.752L84.9864 153.094C84.7885 152.677 84.6053 152.251 84.4402 151.819C84.1676 151.112 83.9403 150.388 83.7597 149.652L80.7135 137.243C80.3253 137.248 79.9413 137.251 79.5615 137.251C77.8039 137.257 76.1229 137.223 74.5186 137.149C69.302 136.909 64.8562 136.251 60.9816 135.139C59.8933 134.828 58.8489 134.481 57.8482 134.096C57.481 133.956 57.1198 133.811 56.7645 133.66C56.6807 133.626 56.5986 133.592 56.517 133.557C55.7826 133.238 55.1399 132.74 54.6477 132.109C54.1555 131.477 53.8295 130.733 53.6996 129.943C53.5403 129.026 53.6462 128.083 54.0049 127.224Z" fill="#2F2E41"/>
<path d="M93.0455 162.341L93.4632 164.128L98.069 165.934C98.2968 166.023 98.4901 166.183 98.6207 166.39C98.7513 166.597 98.8123 166.84 98.7949 167.084C98.7775 167.328 98.6825 167.56 98.5238 167.746C98.3652 167.932 98.1511 168.062 97.913 168.118L92.9488 169.282L91.6796 167.716L91.7595 169.561L89.8898 170L88.9353 163.568L93.0455 162.341Z" fill="#2F2E41"/>
<path d="M73.2883 158.113L73.0443 158.527L73.2185 158.554L73.2883 158.113Z" fill="#2F2E41"/>
<path d="M77.2805 160.469L76.3202 162.032L78.3221 166.557C78.4212 166.78 78.4463 167.03 78.3936 167.269C78.3409 167.507 78.2132 167.723 78.0292 167.884C77.8451 168.045 77.6144 168.143 77.3707 168.164C77.127 168.185 76.8831 168.127 76.6746 167.999L72.3281 165.333L72.5284 163.327L71.2869 164.694L69.6495 163.69L73.4965 158.449L77.2805 160.469Z" fill="#2F2E41"/>
<path d="M93.6821 76.5034C93.7081 76.8029 93.6681 77.1044 93.5649 77.3868C93.4618 77.6691 93.298 77.9255 93.0851 78.1377C92.8722 78.3499 92.6154 78.5128 92.3327 78.615C92.05 78.7172 91.7484 78.7562 91.449 78.7292L88.4435 85.3895L86.4141 82.1802L89.5793 76.3475C89.658 75.8475 89.9173 75.3938 90.3082 75.0723C90.699 74.7508 91.1942 74.5838 91.7 74.603C92.2057 74.6222 92.6868 74.8263 93.0521 75.1766C93.4174 75.5268 93.6416 75.9989 93.6821 76.5034Z" fill="#FFB6B6"/>
<path d="M86.0368 96.3169L72.2664 106.854C71.174 107.688 69.7953 108.055 68.4329 107.873C67.0706 107.692 65.8357 106.978 64.9994 105.887C64.537 105.283 64.2133 104.584 64.0514 103.84C63.8894 103.097 63.8931 102.327 64.0622 101.585C64.2313 100.843 64.5616 100.147 65.0297 99.5474C65.4979 98.9475 66.0924 98.458 66.7709 98.1137L80.4993 91.1484L86.6407 79.1831L90.7644 80.4087L86.0368 96.3169Z" fill="#6C63FF"/>
<path d="M56.7094 108.835L56.4302 119.059C52.5883 125.55 52.1513 128.702 53.2147 130.383L69.0125 124.612L69.2787 123.976L70.1037 119.408L71.5993 114.694C71.8626 114.201 75.4379 111.175 72.0864 105.436L65.3439 96.3519L59.9414 96.0427C59.0507 98.3288 60.6573 99.5761 59.0526 100.103C55.4239 103.429 55.957 103.971 56.7094 108.835Z" fill="#6C63FF"/>
<path d="M45.9653 137.539C45.843 137.264 45.7823 136.966 45.7876 136.666C45.7929 136.365 45.8641 136.069 45.996 135.799C46.128 135.529 46.3175 135.291 46.5513 135.102C46.7852 134.913 47.0576 134.778 47.3493 134.706L48.0157 127.429L50.9816 129.8L49.8941 136.347C49.983 136.845 49.886 137.358 49.6215 137.79C49.3571 138.221 48.9435 138.541 48.4593 138.688C47.975 138.835 47.4536 138.799 46.994 138.587C46.5343 138.375 46.1683 138.002 45.9653 137.539Z" fill="#FFB6B6"/>
<path d="M46.7228 116.315L56.2985 101.859C57.0588 100.714 58.2422 99.9174 59.5891 99.6439C60.936 99.3704 62.3363 99.6424 63.4829 100.4C64.1173 100.82 64.6513 101.375 65.0472 102.025C65.443 102.675 65.6909 103.404 65.7733 104.161C65.8558 104.917 65.7706 105.682 65.524 106.402C65.2774 107.122 64.8753 107.779 64.3463 108.326L53.6444 119.392L51.746 132.707L47.4481 132.895L46.7228 116.315Z" fill="#6C63FF"/>
<path d="M67.0173 83.6379C68.9275 87.4031 67.6796 91.7644 64.135 94.0579C60.3019 96.5379 55.3252 95.9949 53.7155 91.1754C51.923 85.8084 53.3956 83.506 56.5978 80.7554C60.3505 77.5319 64.9533 79.5696 67.0173 83.6379Z" fill="#2F2E41"/>
<path d="M57.6142 92.0255C58.5866 93.2998 60.0251 94.1359 61.6136 94.3502C63.2021 94.5645 64.8107 94.1394 66.0859 93.1683C67.3612 92.1972 68.1988 90.7595 68.4148 89.1712C68.6308 87.5828 68.2074 85.9737 67.2377 84.6973L67.1852 84.6284C66.1946 83.3883 64.7562 82.5874 63.1804 82.3983C61.6046 82.2093 60.0176 82.6473 58.7618 83.6179C57.506 84.5884 56.682 86.0138 56.4676 87.5864C56.2532 89.1591 56.6655 90.753 57.6157 92.0244L57.6142 92.0255Z" fill="#FFB6B6"/>
<path d="M68.8684 83.0282C67.8855 83.9635 66.6875 84.6424 65.38 85.0049C65.118 84.7017 64.8073 84.4443 64.4607 84.243C64.6266 84.5882 64.7403 84.9561 64.7981 85.3347C64.215 86.5449 61.8334 87.4147 59.5572 88.3045L56.5423 82.9835L60.5329 80.7222C63.7394 78.5053 67.5141 79.4515 68.8684 83.0282Z" fill="#2F2E41"/>
<path d="M54.2682 80.762C53.7252 80.5111 53.0215 80.6661 52.5111 81.0187C52.0252 81.388 51.6324 81.8658 51.364 82.4139C50.8759 83.3007 50.5253 84.2565 50.324 85.2485C50.1519 86.1068 50.181 87.1444 50.951 87.5923C51.5935 87.966 52.5122 87.7307 53.1027 87.232C53.6932 86.7332 54.0259 86.0321 54.314 85.3477C54.6021 84.6632 54.8746 83.9536 55.3867 83.3852L54.8547 83.6335C55.0228 83.123 55.1012 82.5871 55.0863 82.0498C55.0741 81.7824 54.9922 81.5229 54.8487 81.297C54.7052 81.0711 54.505 80.8867 54.2682 80.762Z" fill="#2F2E41"/>
<path d="M61.1702 81.4594L56.889 83.8854C55.7314 84.5414 54.8817 85.6304 54.527 86.9129C54.1722 88.1954 54.3414 89.5663 54.9974 90.724C55.9529 92.4101 57.5028 93.6792 59.3441 94.2835C61.1854 94.8878 63.1858 94.7838 64.9546 93.9919L61.0425 90.5382L66.3495 93.2423L67.4826 92.6002C61.7909 91.5653 60.693 87.1004 61.1702 81.4594Z" fill="#2F2E41"/>
</svg>
